<svg xmlns="http://www.w3.org/2000/svg" viewBox="-2 -2 124 90" width="46" height="33" role="img" aria-label="VortexUnit">
  <defs>
    <linearGradient id="vu-r" x1="0" y1="0" x2="1" y2=".35"><stop offset="0" stop-color="#FFFFFF"/><stop offset=".55" stop-color="#E8E4DA"/><stop offset="1" stop-color="#B9B3CC"/></linearGradient>
    <linearGradient id="vu-s" x1="0" y1="0" x2="0" y2="1"><stop offset="0" stop-color="#000" stop-opacity="0"/><stop offset="1" stop-color="#000" stop-opacity=".16"/></linearGradient>
    <linearGradient id="vu-f" x1="0" y1="0" x2="1" y2="1"><stop offset="0" stop-color="#3B3560"/><stop offset="1" stop-color="#8E87A8"/></linearGradient>
  </defs>
  <!-- One ribbon, curled at the start and folded once at the centre -->
  <path d="M0 8C7 3 15 .6 24 0C38 20 56 46 70 59C72 61 74 60 74.5 57C75 53 72 47 66 42C70 41 73 40 75 37L98 0H120C109 21 94 50 81 70C74 81 63 86 55 81C48 77 42 68 36 58C26 42 15 22 8 11.5C6 9 3 8 0 8Z" fill="url(#vu-r)"/>
  <path d="M0 8C7 3 15 .6 24 0C38 20 56 46 70 59C72 61 74 60 74.5 57C75 53 72 47 66 42C70 41 73 40 75 37L98 0H120C109 21 94 50 81 70C74 81 63 86 55 81C48 77 42 68 36 58C26 42 15 22 8 11.5C6 9 3 8 0 8Z" fill="url(#vu-s)"/>
  <path d="M66 42C70 41 73 40 75 37L77 34C78 44 77 52 74.5 57C75 53 72 47 66 42Z" fill="url(#vu-f)"/>
</svg>
